<?xml version="1.0" encoding="utf-8"?>
<!-- Generator: Adobe Illustrator 25.4.3, SVG Export Plug-In . SVG Version: 6.00 Build 0)  -->
<svg version="1.1" id="Layer_1" xmlns="http://www.w3.org/2000/svg" xmlns:xlink="http://www.w3.org/1999/xlink" x="0px" y="0px"
	 viewBox="0 0 72 72" style="enable-background:new 0 0 72 72;" xml:space="preserve">
<style type="text/css">
	.st0{fill:#FFFFFF;}
	.st1{fill:#0E1F36;}
	.st2{fill:none;stroke:#FFFFFF;stroke-miterlimit:10;}
	.st3{fill:#0E1F36;stroke:#FFFFFF;stroke-miterlimit:10;}
</style>
<path class="st0" d="M0.4,57.5c0,12,24.2,8.1,24.2,8.1c18.2-2.8,28-8.4,28-8.4s16.1-6.7,18.7-16.5S58,31.4,58,31.4s7.1,2.1,6.7,6.2
	s-2.9,9.8-17.4,16.5S9.9,66,0.8,57.9L0.4,57.5z"/>
<polygon class="st1" points="49.5,23.3 54.4,29.6 44.7,29.6 "/>
<polygon class="st0" points="49.5,23.8 53.9,29.4 45.3,29.4 "/>
<path class="st0" d="M61.8,36.6c0,0-0.9,4.4-7.9,9.7V29.6h-8.7v21.8c-1.1,0.5-2.2,1-3.5,1.5V35.4H33v20.4h0.3
	c-1.1,0.3-2.5,0.6-4,0.9V43.6h-8.6v14.2H21c-1.4,0.1-2.8,0.2-4.2,0.2v-7.1H8.2v6.5c-2.4-0.4-4.8-1-7.1-1.8
	c7.8,9.5,36.1,1.1,36.1,1.1C65.1,47.9,61.8,36.6,61.8,36.6z"/>
<path class="st0" d="M50.1,7.7h-0.5V8l0,0V7.7H49C48.6,14,43.2,19,43.2,19s2,2.6,2,10l4.1-5.4l0.2-0.3l0.2,0.3l4.2,5.3
	c0-7.4,1.9-9.9,1.9-9.9S50.4,14,50.1,7.7z"/>
<ellipse class="st1" cx="49.5" cy="19" rx="1.3" ry="1.2"/>
<polygon class="st0" points="33.1,63.9 41.8,63.9 41.8,61.6 "/>
<polygon class="st0" points="45.2,60.4 45.3,63.9 53.9,63.9 53.9,56.6 "/>
<line class="st2" x1="49.5" y1="8" x2="49.5" y2="3.2"/>
<line class="st3" x1="47.6" y1="4.8" x2="51.5" y2="4.8"/>
</svg>
