<?xml version="1.0" encoding="utf-8"?>
<!-- Generator: Adobe Illustrator 25.4.3, SVG Export Plug-In . SVG Version: 6.00 Build 0)  -->
<svg version="1.1" id="Layer_1" xmlns="http://www.w3.org/2000/svg" xmlns:xlink="http://www.w3.org/1999/xlink" x="0px" y="0px"
	 viewBox="0 0 360 72" style="enable-background:new 0 0 360 72;" xml:space="preserve">
<style type="text/css">
	.st0{fill:#0C1E36;}
	.st1{fill:#D8A828;}
	.st2{fill:#FFFFFF;}
	.st3{fill:none;stroke:#0C1E36;stroke-miterlimit:10;}
</style>
<g>
	<g>
		<path class="st0" d="M107,30h-4.5v13.9h-2.1V30h-4.4v-1.6H107V30z"/>
		<path class="st0" d="M110.5,43.9h-2.2V28.4h2.2V43.9z M123.7,43.9l-2.2,0v-9.1h-9.8v-1.7h9.8v-4.7h2.2V43.9z"/>
		<path class="st0" d="M137.7,30h-9.8v12.4h9.5v1.5h-11.8V28.3h12L137.7,30L137.7,30z M138.6,35.1h-9.7v-1.6h9.7V35.1z"/>
		<path class="st0" d="M158.8,29.9c-0.5,0-1.1-0.1-1.6,0c-2.3,0-4.2,0.7-5.7,1.9c-1.4,1.2-2.1,2.7-2.1,4.4c0,2,0.8,3.6,2.5,4.7
			c1.5,1,3.3,1.5,5.4,1.5c0.6,0,1.2,0,1.7-0.1V44c-0.1,0-0.3,0-0.6,0s-0.7,0-1.1,0c-2.7-0.1-4.9-0.7-6.8-2c-2.2-1.5-3.2-3.4-3.2-5.9
			c0-2.4,1-4.4,3-5.9c1.9-1.5,4.2-2.2,6.9-2.2c0.4,0,0.9,0,1.6,0.1L158.8,29.9L158.8,29.9z"/>
		<path class="st0" d="M162.8,43.9h-2.2V28.4h2.2V43.9z M175.9,43.9l-2.2,0v-9.1h-9.8v-1.7h9.8v-4.7h2.2V43.9z"/>
		<path class="st0" d="M177.9,35.8c0-2.8,0.2-5.2,0.7-7.4h2.1c-0.1,1.1-0.2,2.2-0.4,3.4c-0.1,1.3-0.2,2.4-0.2,3.4
			c0,2.4,0.2,4,0.6,4.9c0.7,1.6,2.3,2.3,4.8,2.3c2.5,0,4.1-0.7,4.8-2.1c0.4-0.8,0.6-2.4,0.6-4.9c0-1.2-0.1-2.1-0.1-2.6
			c-0.2-1.4-0.3-2.9-0.5-4.3h2.1c0.5,2.2,0.7,4.7,0.7,7.4c0,2.6-0.4,4.6-1.3,5.8c-1.1,1.7-3.2,2.5-6.1,2.5c-2.9,0-5-0.8-6.2-2.5
			C178.3,40.3,177.9,38.4,177.9,35.8z"/>
		<path class="st0" d="M210.4,33.9c0.1,1.5-0.7,2.9-2.3,4.2c-1.4,1.1-2.9,1.7-4.4,1.8c0.8,0.6,2,1.2,3.4,1.7
			c1.2,0.5,2.3,0.8,3.1,0.9c0,0.6,0,1.1,0,1.4c0,0.3,0,0.4,0,0.3c-4.7-1.3-8.9-3.1-12.5-5.3v-1.1c1.8,0.6,3.2,0.9,4.2,0.9
			c1.6,0,3.1-0.5,4.4-1.4c1.4-1,2.1-2.2,2.1-3.4c-0.1-1.1-0.7-2.1-1.8-2.8c-1.1-0.7-2.3-1-3.7-1h-6.1v13.9h-2.1V28.4h8.1
			c2,0,3.7,0.5,5.2,1.5C209.5,30.9,210.3,32.2,210.4,33.9z"/>
		<path class="st0" d="M223.5,29.9c-0.5,0-1.1-0.1-1.6,0c-2.3,0-4.2,0.7-5.7,1.9c-1.4,1.2-2.1,2.7-2.1,4.4c0,2,0.8,3.6,2.5,4.7
			c1.5,1,3.3,1.5,5.4,1.5c0.6,0,1.2,0,1.7-0.1V44c-0.1,0-0.3,0-0.6,0s-0.7,0-1.1,0c-2.7-0.1-4.9-0.7-6.8-2c-2.2-1.5-3.2-3.4-3.2-5.9
			c0-2.4,1-4.4,3-5.9c1.9-1.5,4.2-2.2,6.9-2.2c0.4,0,0.9,0,1.6,0.1L223.5,29.9L223.5,29.9z"/>
		<path class="st0" d="M227.5,43.9h-2.2V28.4h2.2V43.9z M240.6,43.9l-2.2,0v-9.1h-9.8v-1.7h9.8v-4.7h2.2V43.9z"/>
		<path class="st0" d="M265,39.4c0,1.2-0.4,2.2-1.1,3c-0.9,1-2,1.4-3.5,1.4h-10.8c0-3.1,0-8.3,0-15.5l10.5,0c1,0,2,0.4,2.9,1.1
			c1,0.8,1.5,1.6,1.5,2.5c0,0.8-0.2,1.5-0.6,2.1c-0.4,0.7-1.1,1.2-1.9,1.4c0.9,0.2,1.7,0.6,2.2,1.4C264.8,37.6,265,38.4,265,39.4z
			 M263,39.4c0-1-0.4-1.8-1.1-2.4c-0.7-0.6-1.5-0.9-2.4-0.9h-6.7v-1.5h6.7c0.9,0,1.6-0.2,2.1-0.8c0.4-0.5,0.6-1,0.6-1.6
			c0-0.8-0.4-1.5-1.3-1.8c-0.6-0.3-1.3-0.4-2.2-0.4h-7v12.4h8.3c0.8,0,1.5-0.3,2.1-0.8C262.7,41,263,40.3,263,39.4z"/>
		<path class="st0" d="M266.8,35.8c0-2.8,0.2-5.2,0.7-7.4h2.1c-0.1,1.1-0.2,2.2-0.4,3.4c-0.1,1.3-0.2,2.4-0.2,3.4
			c0,2.4,0.2,4,0.6,4.9c0.7,1.6,2.3,2.3,4.8,2.3c2.5,0,4.1-0.7,4.8-2.1c0.4-0.8,0.6-2.4,0.6-4.9c0-1.2,0-2.1-0.1-2.6
			c-0.2-1.4-0.3-2.9-0.5-4.3h2c0.5,2.2,0.7,4.7,0.7,7.4c0,2.6-0.4,4.6-1.3,5.8c-1.1,1.7-3.2,2.5-6.1,2.5c-3,0-5-0.8-6.2-2.5
			C267.2,40.3,266.8,38.4,266.8,35.8z"/>
		<path class="st0" d="M299.4,36.2c0,2.1-0.7,3.9-2,5.3c-1.4,1.5-3.3,2.3-5.6,2.3h-8.3V28.4l7.4,0c2.6,0,4.7,0.7,6.2,2.1
			C298.6,32,299.4,33.9,299.4,36.2z M297.1,36c0-1.7-0.5-3.1-1.6-4.2c-1.2-1.2-2.7-1.8-4.5-1.8h-5.2v12.3h6.3c1.6,0,2.9-0.7,3.9-2.2
			C296.7,38.9,297.1,37.5,297.1,36z"/>
		<path class="st0" d="M317.8,43.3c-0.7,0.3-1.6,0.5-2.6,0.7c-1.1,0.2-2,0.3-2.7,0.3c-2.9,0-5.4-0.6-7.4-1.8
			c-2.5-1.5-3.7-3.6-3.7-6.5c0-2.7,1.2-4.8,3.5-6.3c2-1.3,4.4-1.9,7.2-1.9c1,0,2.1,0.1,3.3,0.3v1.7c-1.1-0.2-2.2-0.3-3.3-0.3
			c-2.4,0-4.4,0.5-6,1.6c-1.8,1.2-2.6,2.8-2.6,4.9c0,2.2,1,3.9,3,5.1c1.6,1,3.6,1.5,5.8,1.5c0.4,0,0.9,0,1.4-0.2
			c0.7-0.1,1.3-0.3,2-0.4v-6.9h-6.8v-1.6h9L317.8,43.3L317.8,43.3z"/>
		<path class="st0" d="M331.9,30h-9.8v12.4h9.5v1.5h-11.8V28.3h12L331.9,30L331.9,30z M332.8,35.1h-9.7v-1.6h9.7V35.1z"/>
		<path class="st0" d="M345.8,30h-4.5v13.9h-2.1V30h-4.4v-1.6h11.1L345.8,30L345.8,30z"/>
	</g>
	<g>
		<path class="st0" d="M162.3,47.1c1.8,0,2.7,0.7,2.7,2c0,0.8-0.5,1.4-1.4,1.8c1.3,0.2,2,0.9,2.1,2.1c0,1.6-1.1,2.4-3.1,2.4h-4.3V55
			c0.6,0,0.9-0.2,0.9-0.6v-6.1c0-0.4-0.3-0.6-0.9-0.6v-0.5H162.3z M162.1,50.7c0.7-0.1,1.1-0.5,1.1-1.4c0-1-0.5-1.5-1.6-1.6h-0.4v3
			H162.1z M161.1,51.4v2.8c0,0.4,0.2,0.7,0.7,0.7h0.3c1.1,0,1.7-0.6,1.7-1.7c0-1.1-0.4-1.7-1.4-1.8H161.1z"/>
		<path class="st0" d="M169.5,49.6c1.7,0,2.5,0.6,2.6,1.8v3.1c0,0.2,0.1,0.2,0.2,0.2c0.1,0,0.3-0.1,0.4-0.2l0.2,0.4
			c-0.3,0.3-0.7,0.5-1.2,0.5c-0.7,0-1.2-0.2-1.4-0.5c-0.3,0.4-0.9,0.5-1.8,0.5c-1.2-0.1-1.8-0.6-1.8-1.5c0-1,0.5-1.5,1.6-1.7
			c1-0.2,1.7-0.4,1.9-0.7v-0.7c-0.1-0.4-0.2-0.6-0.4-0.6s-0.3,0.1-0.4,0.3c-0.1,0.2-0.2,0.5-0.4,0.7c-0.2,0.2-0.5,0.3-0.8,0.3
			c-0.5,0-0.7-0.2-0.7-0.7c0-0.3,0.2-0.6,0.5-0.8C168.5,49.8,169,49.6,169.5,49.6z M170.2,52.2c-1.1,0.3-1.6,0.8-1.6,1.5
			c0,0.7,0.4,1.1,1,1.1c0.2,0,0.4-0.1,0.6-0.3V52.2z"/>
		<path class="st0" d="M176.4,55.5c-1.9,0-2.9-1-3-3c0-1.9,1.1-2.9,3.2-2.9c1.3,0,2.1,0.4,2.2,1.2c0,0.5-0.3,0.8-0.9,0.9
			c-0.5,0-0.8-0.2-0.9-0.7c0-0.3,0.1-0.5,0.1-0.6c0,0,0,0,0-0.1c0-0.1-0.1-0.1-0.4-0.1c-0.9,0-1.3,0.8-1.3,2.3
			c0,1.5,0.5,2.2,1.4,2.2c0.7,0,1.3-0.5,1.7-1.3l0.5,0.2C178.6,54.8,177.8,55.5,176.4,55.5z"/>
		<path class="st0" d="M182.2,54.1c0,0.6,0.1,0.9,0.4,0.9v0.5h-2.6V55c0.3,0,0.4-0.2,0.4-0.6V48c0-0.3-0.4-0.5-0.9-0.5v-0.5
			c0.9,0,1.8-0.1,2.8-0.2v5.9l1.1-1.5c0.1-0.2,0.2-0.4,0.2-0.5c0-0.2-0.1-0.3-0.2-0.3v-0.5h2.5v0.5c-0.6,0-1.1,0.3-1.4,0.7l-0.7,0.9
			l1.6,2.4c0.3,0.4,0.7,0.7,1.1,0.7v0.5h-3V55c0.1,0,0.2-0.1,0.2-0.3c0-0.1,0-0.2-0.1-0.4l-0.7-1.1L182.2,54.1z"/>
		<path class="st0" d="M195.3,51.3c0,1.2-0.3,2.1-1,2.9c-0.7,0.8-1.8,1.2-3.2,1.2c-1.5,0-2.6-0.4-3.2-1.2c-0.7-0.8-1.1-1.8-1.1-3
			c0-1.2,0.3-2.2,1-3c0.7-0.8,1.8-1.2,3.2-1.2c1.5,0,2.6,0.4,3.4,1.2C195,49.1,195.3,50.1,195.3,51.3z M191.2,54.9
			c0.6,0,1.1-0.3,1.5-0.9c0.4-0.6,0.7-1.5,0.7-2.7c0-1.1-0.3-2.1-0.7-2.7c-0.4-0.6-0.9-0.9-1.5-0.9c-0.6,0-1.1,0.3-1.4,0.9
			c-0.4,0.6-0.7,1.6-0.7,2.8c0,1.1,0.3,2,0.8,2.7C190.1,54.6,190.6,54.9,191.2,54.9z"/>
		<path class="st0" d="M199.7,46.8c-0.4,0-0.6,0.4-0.6,1.3v1.7h1.8v0.5h-1.8v4c0,0.4,0.2,0.6,0.7,0.6v0.5h-3V55
			c0.3,0,0.5-0.2,0.5-0.6v-4h-1.1v-0.5h1.1v-1.4c0-1.4,0.7-2.2,2.1-2.3c1.3,0,2,0.4,2.1,1.2c0,0.5-0.3,0.8-0.8,0.8
			c-0.6,0-0.9-0.2-0.9-0.7c0-0.2,0-0.4,0.1-0.5c0,0,0-0.1,0-0.1C200,46.9,199.9,46.8,199.7,46.8z"/>
		<path class="st0" d="M204.7,46.8c-0.4,0-0.6,0.4-0.6,1.3v1.7h1.8v0.5h-1.8v4c0,0.4,0.2,0.6,0.7,0.6v0.5h-3V55
			c0.3,0,0.5-0.2,0.5-0.6v-4h-1.1v-0.5h1.1v-1.4c0-1.4,0.7-2.2,2.1-2.3c1.3,0,2,0.4,2.1,1.2c0,0.5-0.3,0.8-0.8,0.8
			c-0.6,0-0.9-0.2-0.9-0.7c0-0.2,0-0.4,0.1-0.5c0,0,0-0.1,0-0.1C205,46.9,204.9,46.8,204.7,46.8z"/>
		<path class="st0" d="M207.3,50.9c0-0.3-0.4-0.5-0.9-0.5v-0.5c0.6,0,1.1,0,1.4,0c0.3,0,0.8-0.1,1.4-0.1v4.7c0,0.4,0.2,0.6,0.5,0.6
			v0.5h-2.9V55c0.3,0,0.5-0.2,0.5-0.6L207.3,50.9L207.3,50.9z M209.1,47.6c0,0.6-0.4,0.9-1.1,0.9c-0.3,0-0.6-0.1-0.8-0.3
			c-0.2-0.2-0.3-0.4-0.3-0.6c0-0.6,0.4-0.9,1.1-0.9S209.1,47,209.1,47.6z"/>
		<path class="st0" d="M213.8,55.5c-1.9,0-2.9-1-3-3c0-1.9,1.1-2.9,3.2-2.9c1.3,0,2.1,0.4,2.2,1.2c0,0.5-0.3,0.8-0.9,0.9
			c-0.5,0-0.8-0.2-0.9-0.7c0-0.3,0.1-0.5,0.1-0.6c0,0,0,0,0-0.1c0-0.1-0.1-0.1-0.4-0.1c-0.9,0-1.3,0.8-1.3,2.3
			c0,1.5,0.5,2.2,1.4,2.2c0.7,0,1.3-0.5,1.7-1.3l0.5,0.2C215.9,54.8,215.1,55.5,213.8,55.5z"/>
		<path class="st0" d="M220.1,55.5c-2,0-3-1-3-3c0.1-1.9,1.1-2.8,3-2.8c0.9,0,1.6,0.3,2.1,0.8c0.5,0.5,0.7,1.2,0.7,2h-3.8
			c0,1.5,0.4,2.2,1.3,2.2c0.8,0,1.4-0.5,1.8-1.3l0.5,0.3C222.3,54.8,221.4,55.4,220.1,55.5z M221,51.9c0-1.1-0.3-1.7-0.8-1.7
			s-0.8,0.6-1,1.7H221z"/>
		<path class="st0" d="M233.4,51.3c0,1.2-0.5,2.2-1.5,3.1c-1,0.9-2.2,1.3-3.6,1.3c-1.4,0-2.6-0.4-3.5-1.3c-0.9-0.9-1.4-2-1.4-3.1
			s0.5-2.2,1.4-3.1c0.9-0.9,2.1-1.3,3.6-1.3c1.4,0,2.6,0.5,3.6,1.3C232.9,49.1,233.4,50.1,233.4,51.3z M228.4,47.4
			c-1.1,0-2.1,0.4-2.9,1.1s-1.3,1.7-1.3,2.8s0.4,2.1,1.3,2.8s1.8,1.1,2.9,1.1c1.1,0,2.1-0.4,2.9-1.1c0.9-0.7,1.3-1.7,1.3-2.8
			c0-1.1-0.4-2.1-1.3-2.8C230.5,47.8,229.5,47.4,228.4,47.4z M228,51.3c0,1.3,0.4,2,1.1,2c0.3,0,0.5-0.1,0.7-0.2
			c0.2-0.2,0.4-0.5,0.5-0.9h0.4c0,0.5-0.2,0.9-0.4,1.2s-0.7,0.5-1.3,0.6c-0.9,0-1.5-0.3-2.1-0.8c-0.5-0.5-0.7-1.1-0.7-1.8
			c0-0.8,0.2-1.4,0.7-1.9c0.6-0.6,1.2-0.8,2-0.8c0.5,0,0.9,0.1,1.1,0.4h0.6v1.6H230c-0.1-0.5-0.2-0.9-0.4-1.2
			c-0.1-0.1-0.3-0.2-0.5-0.2C228.4,49.3,228,50,228,51.3z"/>
		<path class="st0" d="M238.4,50.7c-0.6-0.4-0.9-0.9-0.9-1.5c0-0.5,0.2-1,0.7-1.4c0.6-0.5,1.3-0.7,2.3-0.7c1,0,1.7,0.3,2.1,0.8v1.5
			h-0.7c-0.2-0.7-0.4-1.1-0.6-1.3c-0.3-0.2-0.5-0.4-0.8-0.4c-0.3,0-0.6,0.1-0.8,0.3c-0.2,0.2-0.4,0.6-0.4,1c0,0.4,0.4,0.8,1.2,1.2
			c0.9,0.4,1.5,0.8,1.9,1.1c0.6,0.5,1,1.1,1.1,1.8c0,0.6-0.2,1.2-0.8,1.6c-0.6,0.5-1.4,0.7-2.6,0.7c-1.3,0-2.2-0.4-2.6-1l0-2h0.9
			c0.2,1.1,0.4,1.8,0.7,2.1c0.3,0.2,0.6,0.4,0.9,0.4c0.5,0,0.8-0.1,1-0.3c0.3-0.2,0.4-0.6,0.4-1.2c0-0.7-0.5-1.2-1.2-1.6
			C239.4,51.3,238.8,50.9,238.4,50.7z"/>
		<path class="st0" d="M247.5,55.5c-2,0-3-1-3-3c0.1-1.9,1.1-2.8,3-2.8c0.9,0,1.6,0.3,2.1,0.8c0.5,0.5,0.7,1.2,0.7,2h-3.8
			c0,1.5,0.4,2.2,1.3,2.2c0.8,0,1.4-0.5,1.8-1.3l0.5,0.3C249.7,54.8,248.9,55.4,247.5,55.5z M248.4,51.9c0-1.1-0.3-1.7-0.8-1.7
			s-0.8,0.6-1,1.7H248.4z"/>
		<path class="st0" d="M254.7,50.8c-0.5,0.2-0.8,0.5-0.9,0.9v2.6c0,0.4,0.2,0.6,0.5,0.6v0.5h-2.8V55c0.3,0,0.5-0.2,0.5-0.6v-3.5
			c0-0.3-0.4-0.5-0.9-0.5v-0.5c0.6,0,1.1,0,1.4,0c0.3,0,0.8-0.1,1.4-0.1v1.2c0.5-0.8,1.1-1.2,1.9-1.2c0.6,0,0.9,0.2,0.9,0.8
			c0,0.5-0.3,0.8-0.9,0.8C255.2,51.2,254.9,51.1,254.7,50.8z"/>
		<path class="st0" d="M256.4,49.8h3.2v0.5c-0.2,0-0.3,0.2-0.3,0.5c0,0.1,0,0.2,0,0.3l0.9,2.5l0.9-2.9c0-0.2-0.1-0.3-0.2-0.3v-0.5h2
			v0.5c-0.5,0-0.7,0.1-0.9,0.4l-1.5,4.8h-1.2l-1.6-4c-0.4-0.8-0.8-1.2-1.2-1.2L256.4,49.8L256.4,49.8z"/>
		<path class="st0" d="M264.1,50.9c0-0.3-0.4-0.5-1-0.5v-0.5c0.6,0,1,0,1.4,0c0.3,0,0.8-0.1,1.4-0.1v4.7c0,0.4,0.2,0.6,0.5,0.6v0.5
			h-2.9V55c0.3,0,0.5-0.2,0.5-0.6L264.1,50.9L264.1,50.9z M265.9,47.6c0,0.6-0.4,0.9-1.1,0.9c-0.3,0-0.5-0.1-0.8-0.3
			c-0.2-0.2-0.3-0.4-0.3-0.6c0-0.6,0.4-0.9,1.1-0.9C265.6,46.7,265.9,47,265.9,47.6z"/>
		<path class="st0" d="M270.6,55.5c-1.9,0-2.9-1-3-3c0-1.9,1.1-2.9,3.2-2.9c1.3,0,2,0.4,2.2,1.2c0,0.5-0.3,0.8-0.9,0.9
			c-0.5,0-0.8-0.2-0.9-0.7c0-0.3,0-0.5,0.1-0.6c0,0,0,0,0-0.1c0-0.1-0.1-0.1-0.5-0.1c-0.9,0-1.3,0.8-1.3,2.3c0,1.5,0.5,2.2,1.4,2.2
			c0.7,0,1.3-0.5,1.7-1.3l0.5,0.2C272.8,54.8,271.9,55.5,270.6,55.5z"/>
		<path class="st0" d="M277,55.5c-2,0-3-1-3-3c0.1-1.9,1.1-2.8,3-2.8c0.9,0,1.6,0.3,2.1,0.8c0.5,0.5,0.7,1.2,0.7,2H276
			c0,1.5,0.4,2.2,1.3,2.2c0.8,0,1.4-0.5,1.8-1.3l0.5,0.3C279.1,54.8,278.3,55.4,277,55.5z M277.8,51.9c0-1.1-0.3-1.7-0.8-1.7
			s-0.8,0.6-1,1.7H277.8z"/>
		<path class="st0" d="M285.3,51.3h-0.7c-0.1-0.5-0.2-0.9-0.4-1c-0.2-0.1-0.5-0.1-0.7-0.1c-0.6,0-0.9,0.3-0.9,0.8
			c0,0.4,0.5,0.7,1.4,1c1.1,0.3,1.7,0.9,1.7,1.6c0,1.3-0.9,1.9-2.6,1.9c-1.1,0-2-0.2-2.4-0.7v-1.2h0.7c0.1,0.6,0.2,1,0.3,1.1
			c0.2,0.2,0.6,0.2,1.1,0.2c0.7,0,1.1-0.4,1.1-1c0-0.3-0.1-0.6-0.4-0.8c-0.2-0.2-0.6-0.3-1.1-0.5c-1.2-0.3-1.8-0.7-1.8-1.4
			c0-0.5,0.2-0.8,0.6-1.1c0.5-0.4,1.1-0.5,1.8-0.5c1.1,0,1.9,0.3,2.2,0.7L285.3,51.3L285.3,51.3z"/>
	</g>
</g>
<g>
	<path class="st1" d="M12.4,58.8c0,12,24.2,8.1,24.2,8.1c18.2-2.8,28-8.4,28-8.4S80.7,51.8,83.3,42S70,32.7,70,32.7s7.1,2.1,6.7,6.2
		s-2.9,9.8-17.4,16.5s-37.4,11.9-46.5,3.8L12.4,58.8z"/>
	<polygon class="st2" points="61.5,24.6 66.4,30.9 56.7,30.9 	"/>
	<polygon class="st1" points="61.5,25.1 65.9,30.7 57.3,30.7 	"/>
	<path class="st0" d="M73.8,37.9c0,0-0.9,4.4-7.9,9.7V30.9h-8.7v21.8c-1.1,0.5-2.2,1-3.5,1.5V36.7h-8.7v20.4l0.3,0
		c-1.1,0.3-2.5,0.6-4,0.9V44.9h-8.6v14.2H33c-1.4,0.1-2.8,0.2-4.2,0.2v-7.1h-8.6v6.5c-2.4-0.4-4.8-1-7.1-1.8
		c7.8,9.5,36.1,1.1,36.1,1.1C77.1,49.2,73.8,37.9,73.8,37.9z"/>
	<path class="st0" d="M62.1,9h-0.5v0.3h0V9H61c-0.4,6.3-5.8,11.3-5.8,11.3s2,2.6,2,10l4.1-5.4l0.2-0.3l0.2,0.3l4.1,5.4
		c0-7.4,2-10,2-10S62.4,15.3,62.1,9z"/>
	<circle class="st2" cx="61.5" cy="20.4" r="1.3"/>
	<polygon class="st0" points="45.1,65.2 53.8,65.2 53.8,62.9 	"/>
	<polygon class="st0" points="57.2,61.7 57.3,65.2 65.9,65.2 65.9,57.9 	"/>
	<line class="st3" x1="61.5" y1="9.3" x2="61.5" y2="4.5"/>
	<line class="st3" x1="59.6" y1="6.1" x2="63.5" y2="6.1"/>
</g>
</svg>
