<?xml version="1.0" encoding="utf-8"?>
<!-- Generator: Adobe Illustrator 25.4.3, SVG Export Plug-In . SVG Version: 6.00 Build 0)  -->
<svg version="1.1" id="Layer_1" xmlns="http://www.w3.org/2000/svg" xmlns:xlink="http://www.w3.org/1999/xlink" x="0px" y="0px"
	 viewBox="0 0 324 288" style="enable-background:new 0 0 324 288;" xml:space="preserve">
<style type="text/css">
	.st0{fill:#D8A828;}
	.st1{fill:#FFFFFF;}
	.st2{fill:#0C1E36;}
	.st3{fill:none;stroke:#0C1E36;stroke-width:3;stroke-miterlimit:10;}
	.st4{fill:none;stroke:#D8A828;stroke-width:2;stroke-miterlimit:10;}
</style>
<g>
	<g>
		<path class="st0" d="M32.8,205.78c0,45.24,91.14,30.43,91.14,30.43c68.74-10.64,105.55-31.49,105.55-31.49
			s60.75-25.28,70.51-62.09c9.76-36.81-50.22-35.26-50.22-35.26s26.72,7.88,25.39,23.57c-1.33,15.68-11.09,37.01-65.63,62.27
			S68.5,237.99,34.34,207.39L32.8,205.78z"/>
		<polygon class="st1" points="218.04,76.84 236.41,100.83 199.98,100.83 		"/>
		<polygon class="st0" points="218.04,78.61 234.37,99.82 201.98,99.82 		"/>
		<path class="st2" d="M264.08,127.12c0,0-3.39,16.75-29.7,36.63v-62.92h-32.6v82.34c-4.1,1.96-8.46,3.9-13.09,5.83v-66.32h-32.6
			v77.05l0.98-0.14c-4.19,0.99-9.34,2.11-15.28,3.2v-49.51h-32.6v53.55h1.15c-5.11,0.37-10.39,0.62-15.79,0.67v-26.61H61.96v24.44
			c-9.16-1.43-18.25-3.61-26.94-6.81c29.27,35.93,136.16,3.99,136.16,3.99C276.71,169.69,264.08,127.12,264.08,127.12z"/>
		<path class="st2" d="M219.98,18.07h-1.9l0.02,0.98h-0.03l0.02-0.98h-1.9c-1.43,23.85-21.85,42.43-21.85,42.43
			s7.44,9.97,7.44,37.84l15.34-20.47l0.96-1.2l0.96,1.2l15.34,20.47c0-27.87,7.44-37.84,7.44-37.84S221.4,41.93,219.98,18.07z"/>
		<circle class="st1" cx="218.08" cy="61.04" r="4.82"/>
		<polygon class="st2" points="156.08,230.08 188.68,230.08 188.68,221.21 		"/>
		<polygon class="st2" points="201.78,216.74 201.98,230.08 234.37,230.08 234.37,202.52 		"/>
		<line class="st3" x1="218.06" y1="19.05" x2="218.06" y2="1.28"/>
		<line class="st3" x1="210.58" y1="7.35" x2="225.54" y2="7.35"/>
	</g>
	<g>
		<g>
			<path class="st2" d="M26.43,256.59h-5.37v16.52h-2.53v-16.52h-5.28v-1.92h13.18V256.59z"/>
			<path class="st2" d="M30.65,273.16h-2.59v-18.48h2.59V273.16z M46.26,273.16l-2.59-0.03v-10.82H31.96v-1.99h11.71v-5.63h2.59
				C46.26,254.68,46.26,273.16,46.26,273.16z"/>
			<path class="st2" d="M62.97,256.62H51.33v14.74h11.34v1.81h-14v-18.51h14.31V256.62z M64.08,262.74H52.54v-1.86h11.53
				L64.08,262.74L64.08,262.74z"/>
			<path class="st2" d="M88.11,256.48c-0.64-0.06-1.25-0.07-1.86-0.06c-2.77,0.04-5.04,0.8-6.81,2.29c-1.69,1.44-2.53,3.17-2.53,5.2
				c0,2.4,1,4.28,2.99,5.64c1.75,1.21,3.89,1.83,6.43,1.83c0.75,0,1.43-0.05,2.01-0.14v2.1c-0.1,0-0.35,0.01-0.76,0.04
				s-0.82,0.04-1.25,0.04c-3.17-0.07-5.87-0.85-8.09-2.35c-2.58-1.73-3.87-4.08-3.87-7.06c0-2.84,1.2-5.18,3.6-7.03
				c2.3-1.78,5.06-2.65,8.26-2.62c0.47,0,1.09,0.05,1.86,0.14L88.11,256.48L88.11,256.48z"/>
			<path class="st2" d="M92.9,273.16H90.3v-18.48h2.59V273.16z M108.52,273.16l-2.59-0.03v-10.82H94.22v-1.99h11.71v-5.63h2.59
				C108.52,254.68,108.52,273.16,108.52,273.16z"/>
			<path class="st2" d="M110.84,263.55c0-3.3,0.27-6.24,0.82-8.85h2.5c-0.15,1.33-0.29,2.66-0.46,3.99
				c-0.17,1.53-0.24,2.87-0.24,4.01c0,2.87,0.22,4.8,0.67,5.79c0.83,1.86,2.72,2.79,5.65,2.79c2.97,0,4.88-0.85,5.72-2.54
				c0.47-0.97,0.69-2.91,0.67-5.84c-0.02-1.48-0.06-2.5-0.1-3.09c-0.2-1.71-0.38-3.41-0.58-5.1h2.44c0.55,2.6,0.82,5.55,0.82,8.85
				c0,3.15-0.51,5.47-1.53,6.93c-1.36,1.99-3.8,2.96-7.32,2.95c-3.52,0.02-5.98-0.97-7.41-2.95
				C111.4,268.96,110.84,266.65,110.84,263.55z"/>
			<path class="st2" d="M149.57,261.22c0.06,1.85-0.85,3.5-2.75,4.96c-1.71,1.33-3.48,2.03-5.31,2.11c0.98,0.71,2.34,1.4,4.09,2.05
				c1.45,0.55,2.7,0.92,3.75,1.12c0,0.75-0.01,1.3-0.03,1.64c0,0.33,0,0.44,0,0.33c-5.61-1.54-10.56-3.66-14.85-6.37v-1.32
				c2.11,0.71,3.77,1.07,4.97,1.07c1.89,0,3.64-0.56,5.25-1.67c1.73-1.2,2.55-2.57,2.47-4.1c-0.08-1.35-0.8-2.45-2.18-3.31
				c-1.26-0.78-2.73-1.17-4.38-1.17h-7.23v16.59h-2.44v-18.48h9.59c2.39,0,4.44,0.59,6.17,1.75
				C148.55,257.67,149.51,259.27,149.57,261.22z"/>
			<path class="st2" d="M165.23,256.48c-0.64-0.06-1.25-0.07-1.86-0.06c-2.77,0.04-5.04,0.8-6.81,2.29
				c-1.69,1.44-2.53,3.17-2.53,5.2c0,2.4,1,4.28,2.99,5.64c1.75,1.21,3.89,1.83,6.43,1.83c0.75,0,1.43-0.05,2.01-0.14v2.1
				c-0.1,0-0.35,0.01-0.76,0.04c-0.41,0.03-0.82,0.04-1.25,0.04c-3.17-0.07-5.87-0.85-8.09-2.35c-2.58-1.73-3.87-4.08-3.87-7.06
				c0-2.84,1.2-5.18,3.6-7.03c2.3-1.78,5.06-2.65,8.26-2.62c0.47,0,1.09,0.05,1.86,0.14L165.23,256.48L165.23,256.48z"/>
			<path class="st2" d="M170.01,273.16h-2.59v-18.48h2.59V273.16z M185.64,273.16l-2.59-0.03v-10.82h-11.71v-1.99h11.71v-5.63h2.59
				V273.16z"/>
			<path class="st2" d="M214.7,267.85c0,1.39-0.46,2.58-1.37,3.58c-1.04,1.13-2.41,1.69-4.12,1.69h-12.88c0-3.75,0-9.89,0-18.4
				l12.53-0.03c1.17,0,2.32,0.42,3.43,1.26c1.19,0.89,1.79,1.89,1.79,2.98c0,0.95-0.22,1.8-0.67,2.54
				c-0.53,0.87-1.28,1.42-2.26,1.64c1.1,0.21,1.98,0.76,2.62,1.69C214.39,265.68,214.7,266.69,214.7,267.85z M212.23,267.85
				c-0.04-1.16-0.47-2.11-1.3-2.85c-0.82-0.73-1.76-1.1-2.83-1.1h-7.93v-1.72h7.93c1.1,0.04,1.96-0.29,2.56-0.99
				c0.49-0.55,0.73-1.2,0.73-1.97c0-1.01-0.52-1.73-1.55-2.19c-0.71-0.31-1.57-0.46-2.57-0.44h-8.35v14.72h9.88
				c1,0,1.83-0.32,2.49-0.97C211.96,269.71,212.27,268.88,212.23,267.85z"/>
			<path class="st2" d="M216.74,263.55c0-3.3,0.27-6.24,0.82-8.85h2.5c-0.15,1.33-0.29,2.66-0.46,3.99
				c-0.17,1.53-0.24,2.87-0.24,4.01c0,2.87,0.22,4.8,0.67,5.79c0.83,1.86,2.72,2.79,5.65,2.79c2.97,0,4.88-0.85,5.72-2.54
				c0.47-0.97,0.69-2.91,0.67-5.84c-0.02-1.48-0.06-2.5-0.1-3.09c-0.2-1.71-0.38-3.41-0.58-5.1h2.44c0.55,2.6,0.82,5.55,0.82,8.85
				c0,3.15-0.51,5.47-1.53,6.93c-1.36,1.99-3.8,2.96-7.32,2.95c-3.52,0.02-5.98-0.97-7.41-2.95
				C217.31,268.96,216.74,266.65,216.74,263.55z"/>
			<path class="st2" d="M255.61,264.06c0,2.51-0.8,4.64-2.41,6.35c-1.69,1.82-3.9,2.74-6.65,2.74h-9.86v-18.46l8.81,0.03
				c3.11,0,5.57,0.85,7.38,2.55C254.7,258.96,255.61,261.23,255.61,264.06z M252.89,263.75c0-2-0.66-3.69-1.96-5.06
				c-1.41-1.42-3.21-2.13-5.42-2.13h-6.24v14.69h7.46c1.9,0,3.43-0.86,4.62-2.57C252.38,267.18,252.89,265.54,252.89,263.75z"/>
			<path class="st2" d="M277.6,272.42c-0.85,0.33-1.9,0.62-3.14,0.87c-1.3,0.25-2.36,0.38-3.17,0.38c-3.5,0-6.44-0.7-8.85-2.1
				c-2.97-1.75-4.45-4.33-4.45-7.73c0-3.19,1.39-5.68,4.18-7.46c2.36-1.54,5.22-2.3,8.61-2.3c1.24,0,2.56,0.13,3.97,0.38v1.99
				c-1.36-0.23-2.66-0.35-3.89-0.35c-2.87,0-5.23,0.65-7.12,1.95c-2.09,1.42-3.14,3.38-3.14,5.88c0,2.61,1.17,4.64,3.53,6.1
				c1.95,1.18,4.25,1.78,6.91,1.78c0.49,0,1.06-0.07,1.7-0.2c0.79-0.19,1.57-0.35,2.35-0.52v-8.17h-8.15v-1.97h10.66V272.42z"/>
			<path class="st2" d="M294.34,256.62h-11.66v14.74h11.34v1.81h-14v-18.51h14.31L294.34,256.62L294.34,256.62z M295.45,262.74
				h-11.53v-1.86h11.53V262.74z"/>
			<path class="st2" d="M310.85,256.59h-5.37v16.52h-2.53v-16.52h-5.28v-1.92h13.18V256.59z"/>
		</g>
		<g>
			<path class="st2" d="M92.35,277.03c2.15,0.02,3.23,0.82,3.23,2.42c0,0.94-0.55,1.65-1.64,2.13c1.59,0.23,2.42,1.08,2.46,2.54
				c0,1.88-1.25,2.82-3.75,2.82h-5.08v-0.58c0.7,0,1.06-0.24,1.06-0.72v-7.31c0-0.48-0.35-0.73-1.06-0.74v-0.56L92.35,277.03
				L92.35,277.03z M92.04,281.28c0.83-0.08,1.25-0.65,1.25-1.7c0-1.21-0.64-1.84-1.91-1.87h-0.54v3.57H92.04z M90.84,282.14v3.33
				c0,0.52,0.27,0.78,0.81,0.78h0.31c1.35-0.02,2.02-0.69,2.02-2.03c0-1.36-0.54-2.05-1.6-2.08H90.84z"/>
			<path class="st2" d="M100.91,280.03c1.98,0.01,2.98,0.72,3.03,2.13v3.69c0,0.19,0.09,0.28,0.27,0.28c0.16,0,0.31-0.07,0.47-0.21
				l0.22,0.43c-0.35,0.38-0.85,0.59-1.49,0.62c-0.87,0-1.41-0.21-1.6-0.63c-0.37,0.42-1.08,0.63-2.1,0.63
				c-1.41-0.11-2.12-0.71-2.13-1.82c0-1.17,0.62-1.85,1.85-2.02c1.24-0.2,2-0.46,2.3-0.78v-0.88c-0.07-0.51-0.22-0.77-0.44-0.77
				c-0.23,0-0.37,0.13-0.44,0.39c-0.08,0.29-0.24,0.56-0.5,0.78c-0.25,0.21-0.56,0.3-0.93,0.3c-0.58-0.01-0.87-0.29-0.87-0.84
				c0.01-0.37,0.22-0.67,0.6-0.92C99.72,280.15,100.31,280.03,100.91,280.03z M101.68,283.13c-1.3,0.31-1.96,0.89-1.96,1.73
				c0.05,0.87,0.45,1.3,1.2,1.3c0.28,0,0.53-0.11,0.75-0.33V283.13z"/>
			<path class="st2" d="M109.15,286.97c-2.31-0.01-3.48-1.18-3.53-3.52c0.04-2.27,1.31-3.41,3.81-3.42c1.57,0.02,2.43,0.51,2.6,1.47
				c0,0.66-0.35,1-1.07,1.02c-0.6,0-0.95-0.26-1.04-0.79c0-0.3,0.06-0.56,0.17-0.74c0.03-0.03,0.05-0.06,0.05-0.09
				c0-0.11-0.18-0.17-0.54-0.17c-1.06,0.02-1.58,0.92-1.59,2.7c0.01,1.76,0.55,2.64,1.6,2.65c0.86,0,1.55-0.53,2.07-1.59l0.56,0.28
				C111.76,286.23,110.73,286.97,109.15,286.97z"/>
			<path class="st2" d="M115.95,285.32c0,0.7,0.14,1.07,0.42,1.07v0.58h-3.14v-0.56c0.33-0.02,0.5-0.26,0.5-0.74v-7.57
				c-0.04-0.38-0.42-0.6-1.12-0.65v-0.63c1.03,0,2.14-0.07,3.35-0.21v6.96l1.28-1.8c0.14-0.24,0.22-0.44,0.22-0.6
				c0-0.22-0.1-0.34-0.28-0.35v-0.56h2.97v0.58c-0.68,0.02-1.25,0.3-1.71,0.87l-0.81,1.08l1.97,2.82c0.36,0.52,0.78,0.78,1.26,0.78
				v0.58h-3.55v-0.56c0.14-0.02,0.22-0.13,0.22-0.33c0-0.14-0.02-0.28-0.06-0.42l-0.84-1.3L115.95,285.32z"/>
			<path class="st2" d="M131.68,282.05c0,1.4-0.38,2.54-1.15,3.45c-0.84,1-2.12,1.5-3.83,1.5c-1.77,0-3.06-0.46-3.86-1.38
				c-0.83-0.97-1.25-2.15-1.25-3.56c0-1.48,0.38-2.67,1.15-3.57c0.84-1,2.11-1.5,3.8-1.5c1.8,0,3.14,0.5,4,1.5
				C131.3,279.36,131.68,280.55,131.68,282.05z M126.68,286.28c0.72,0,1.31-0.33,1.76-1.01c0.52-0.76,0.78-1.84,0.78-3.23
				c-0.03-1.37-0.32-2.45-0.89-3.26c-0.5-0.69-1.1-1.04-1.8-1.04c-0.68,0-1.26,0.33-1.73,1.01c-0.52,0.76-0.78,1.86-0.78,3.29
				c0.03,1.33,0.33,2.4,0.9,3.2C125.43,285.93,126.02,286.28,126.68,286.28z"/>
			<path class="st2" d="M136.91,276.67c-0.44,0-0.66,0.51-0.66,1.54v2.05h2.16v0.65h-2.16v4.74c0,0.48,0.26,0.72,0.79,0.72v0.58
				h-3.59v-0.58c0.38,0,0.57-0.24,0.57-0.72v-4.74h-1.31v-0.65h1.31v-1.6c0-1.7,0.85-2.62,2.55-2.77c1.58,0,2.41,0.5,2.46,1.5
				c0,0.63-0.31,0.94-0.95,0.94c-0.67,0-1.01-0.27-1.03-0.81c0-0.23,0.05-0.43,0.14-0.6c0.03-0.05,0.05-0.08,0.05-0.1
				C137.25,276.72,137.13,276.67,136.91,276.67z"/>
			<path class="st2" d="M142.84,276.67c-0.44,0-0.66,0.51-0.66,1.54v2.05h2.16v0.65h-2.16v4.74c0,0.48,0.26,0.72,0.79,0.72v0.58
				h-3.59v-0.58c0.38,0,0.57-0.24,0.57-0.72v-4.74h-1.31v-0.65h1.31v-1.6c0-1.7,0.85-2.62,2.55-2.77c1.58,0,2.41,0.5,2.46,1.5
				c0,0.63-0.31,0.94-0.95,0.94c-0.67,0-1.01-0.27-1.03-0.81c0-0.23,0.05-0.43,0.14-0.6c0.03-0.05,0.05-0.08,0.05-0.1
				C143.19,276.72,143.07,276.67,142.84,276.67z"/>
			<path class="st2" d="M145.88,281.52c-0.04-0.39-0.42-0.6-1.12-0.63v-0.63c0.7,0,1.25-0.01,1.65-0.04
				c0.39-0.03,0.96-0.09,1.69-0.17v5.6c0,0.48,0.22,0.72,0.65,0.72v0.58h-3.44v-0.56c0.38-0.02,0.57-0.26,0.57-0.74L145.88,281.52
				L145.88,281.52z M148.03,277.55c0,0.67-0.43,1.02-1.29,1.02c-0.35,0-0.66-0.1-0.92-0.3c-0.25-0.2-0.37-0.43-0.37-0.71
				c0-0.68,0.43-1.04,1.29-1.04C147.6,276.53,148.03,276.87,148.03,277.55z"/>
			<path class="st2" d="M153.6,286.97c-2.31-0.01-3.48-1.18-3.53-3.52c0.04-2.27,1.31-3.41,3.81-3.42c1.57,0.02,2.43,0.51,2.6,1.47
				c0,0.66-0.35,1-1.07,1.02c-0.6,0-0.95-0.26-1.04-0.79c0-0.3,0.06-0.56,0.17-0.74c0.03-0.03,0.05-0.06,0.05-0.09
				c0-0.11-0.18-0.17-0.54-0.17c-1.06,0.02-1.58,0.92-1.59,2.7c0.01,1.76,0.55,2.64,1.6,2.65c0.86,0,1.55-0.53,2.07-1.59l0.56,0.28
				C156.21,286.23,155.18,286.97,153.6,286.97z"/>
			<path class="st2" d="M161.17,286.97c-2.36-0.06-3.55-1.24-3.59-3.56c0.11-2.22,1.3-3.35,3.58-3.38c1.07,0,1.89,0.31,2.46,0.94
				c0.56,0.6,0.84,1.41,0.84,2.44h-4.46c0.02,1.78,0.53,2.67,1.52,2.68c0.91,0,1.61-0.53,2.1-1.59l0.59,0.3
				C163.77,286.2,162.75,286.92,161.17,286.97z M162.21,282.74c-0.04-1.35-0.35-2.02-0.93-2.02c-0.58,0-0.99,0.67-1.23,2.02H162.21z
				"/>
			<path class="st2" d="M177.01,281.99c0,1.44-0.58,2.68-1.74,3.75c-1.16,1.06-2.59,1.57-4.28,1.57c-1.7,0-3.11-0.53-4.22-1.57
				c-1.1-1.07-1.65-2.32-1.65-3.75c0-1.43,0.57-2.67,1.7-3.75c1.13-1.07,2.55-1.59,4.25-1.59c1.71,0,3.13,0.53,4.25,1.59
				C176.44,279.32,177.01,280.57,177.01,281.99z M171.07,277.33c-1.32,0-2.49,0.44-3.5,1.33c-1.01,0.88-1.52,1.99-1.52,3.33
				c0,1.34,0.51,2.45,1.52,3.33c1.01,0.88,2.18,1.33,3.5,1.33c1.31,0,2.47-0.44,3.49-1.33c1.03-0.88,1.54-1.99,1.54-3.33
				c0-1.35-0.51-2.46-1.54-3.33C173.54,277.78,172.38,277.33,171.07,277.33z M170.58,282.02c0,1.54,0.42,2.33,1.25,2.35
				c0.35-0.02,0.63-0.12,0.81-0.29c0.29-0.28,0.49-0.64,0.59-1.07h0.54c-0.02,0.57-0.2,1.07-0.54,1.5
				c-0.34,0.43-0.87,0.66-1.59,0.67c-1.02,0-1.83-0.32-2.46-0.97c-0.55-0.55-0.82-1.28-0.82-2.19c0-0.9,0.28-1.64,0.85-2.21
				c0.66-0.67,1.45-1.01,2.39-1.01c0.59,0,1.04,0.14,1.34,0.42h0.66v1.97h-0.64c-0.1-0.64-0.25-1.1-0.45-1.4
				c-0.1-0.15-0.3-0.22-0.62-0.22C171.02,279.62,170.58,280.43,170.58,282.02z"/>
			<path class="st2" d="M182.94,281.26c-0.69-0.49-1.07-1.09-1.11-1.77c0-0.64,0.28-1.19,0.86-1.67c0.66-0.55,1.57-0.82,2.77-0.82
				c1.2,0,2.05,0.32,2.54,0.97v1.82h-0.83c-0.22-0.83-0.45-1.35-0.7-1.56c-0.31-0.29-0.63-0.43-0.93-0.43
				c-0.41,0-0.71,0.11-0.92,0.32c-0.29,0.29-0.44,0.67-0.44,1.14c0.03,0.48,0.52,0.96,1.48,1.45c1.03,0.52,1.78,0.97,2.27,1.33
				c0.77,0.54,1.19,1.26,1.28,2.18c0,0.76-0.3,1.41-0.9,1.93c-0.67,0.59-1.7,0.88-3.08,0.88c-1.57,0-2.61-0.42-3.11-1.25l-0.02-2.43
				h1.01c0.22,1.33,0.51,2.16,0.89,2.5c0.32,0.28,0.69,0.42,1.12,0.42c0.56,0,0.97-0.1,1.21-0.3c0.32-0.28,0.49-0.75,0.5-1.43
				c-0.05-0.8-0.55-1.45-1.49-1.96C184.18,282.01,183.39,281.58,182.94,281.26z"/>
			<path class="st2" d="M193.84,286.97c-2.36-0.06-3.55-1.24-3.59-3.56c0.11-2.22,1.3-3.35,3.58-3.38c1.07,0,1.89,0.31,2.46,0.94
				c0.56,0.6,0.84,1.41,0.84,2.44h-4.46c0.02,1.78,0.53,2.67,1.52,2.68c0.91,0,1.61-0.53,2.1-1.59l0.59,0.3
				C196.44,286.2,195.42,286.92,193.84,286.97z M194.88,282.74c-0.04-1.35-0.35-2.02-0.93-2.02c-0.58,0-0.99,0.67-1.23,2.02H194.88z
				"/>
			<path class="st2" d="M202.38,281.4c-0.64,0.29-1,0.66-1.1,1.1v3.14c0,0.48,0.19,0.72,0.57,0.72v0.58h-3.36v-0.56
				c0.38-0.02,0.57-0.26,0.57-0.74v-4.14c-0.04-0.39-0.42-0.6-1.12-0.63v-0.63c0.7,0,1.25-0.01,1.65-0.04
				c0.38-0.03,0.95-0.09,1.69-0.17v1.47c0.61-0.99,1.37-1.48,2.29-1.48c0.68,0,1.05,0.3,1.1,0.91c0,0.57-0.37,0.89-1.11,0.97
				C202.98,281.89,202.59,281.73,202.38,281.4z"/>
			<path class="st2" d="M204.39,280.26h3.83v0.55c-0.27,0.01-0.4,0.2-0.4,0.55c0,0.1,0.02,0.23,0.05,0.39l1.1,2.91l1.01-3.46
				c0-0.25-0.1-0.38-0.28-0.39v-0.55h2.43v0.55c-0.55,0.01-0.89,0.17-1.01,0.48l-1.85,5.67h-1.49l-1.93-4.72
				c-0.47-0.94-0.96-1.41-1.46-1.41L204.39,280.26L204.39,280.26z"/>
			<path class="st2" d="M213.59,281.52c-0.04-0.39-0.42-0.6-1.12-0.63v-0.63c0.7,0,1.25-0.01,1.65-0.04
				c0.39-0.03,0.96-0.09,1.69-0.17v5.6c0,0.48,0.22,0.72,0.65,0.72v0.58h-3.44v-0.56c0.38-0.02,0.57-0.26,0.57-0.74L213.59,281.52
				L213.59,281.52z M215.74,277.55c0,0.67-0.43,1.02-1.29,1.02c-0.35,0-0.66-0.1-0.92-0.3c-0.25-0.2-0.37-0.43-0.37-0.71
				c0-0.68,0.43-1.04,1.29-1.04S215.74,276.87,215.74,277.55z"/>
			<path class="st2" d="M221.32,286.97c-2.31-0.01-3.48-1.18-3.53-3.52c0.04-2.27,1.31-3.41,3.81-3.42c1.57,0.02,2.43,0.51,2.6,1.47
				c0,0.66-0.35,1-1.07,1.02c-0.6,0-0.95-0.26-1.04-0.79c0-0.3,0.06-0.56,0.17-0.74c0.03-0.03,0.05-0.06,0.05-0.09
				c0-0.11-0.18-0.17-0.54-0.17c-1.06,0.02-1.58,0.92-1.59,2.7c0.01,1.76,0.55,2.64,1.6,2.65c0.86,0,1.55-0.53,2.07-1.59l0.56,0.28
				C223.93,286.23,222.9,286.97,221.32,286.97z"/>
			<path class="st2" d="M228.89,286.97c-2.36-0.06-3.55-1.24-3.59-3.56c0.11-2.22,1.3-3.35,3.58-3.38c1.07,0,1.89,0.31,2.46,0.94
				c0.56,0.6,0.84,1.41,0.84,2.44h-4.46c0.02,1.78,0.53,2.67,1.52,2.68c0.91,0,1.61-0.53,2.1-1.59l0.59,0.3
				C231.49,286.2,230.47,286.92,228.89,286.97z M229.92,282.74c-0.04-1.35-0.35-2.02-0.93-2.02s-0.99,0.67-1.23,2.02H229.92z"/>
			<path class="st2" d="M238.77,282.04h-0.83c-0.11-0.65-0.26-1.06-0.47-1.23c-0.26-0.1-0.56-0.16-0.89-0.16
				c-0.67,0.04-1.03,0.34-1.07,0.91c0,0.43,0.57,0.83,1.7,1.21c1.32,0.4,2,1.04,2.06,1.9c0,1.53-1.03,2.29-3.07,2.29
				c-1.36,0-2.33-0.26-2.88-0.78v-1.44h0.86c0.15,0.68,0.28,1.13,0.4,1.33c0.29,0.2,0.72,0.29,1.29,0.29
				c0.84-0.01,1.27-0.42,1.28-1.23c0-0.39-0.16-0.71-0.48-0.97c-0.29-0.22-0.71-0.4-1.28-0.55c-1.41-0.3-2.14-0.84-2.18-1.6
				c0-0.54,0.25-0.99,0.75-1.35c0.56-0.43,1.29-0.65,2.18-0.65c1.36,0.04,2.23,0.31,2.61,0.82L238.77,282.04L238.77,282.04z"/>
		</g>
	</g>
	<line class="st4" x1="13.26" y1="244.05" x2="310.85" y2="244.05"/>
</g>
</svg>
